<svg width="88" height="26" viewBox="0 0 88 26" fill="none" xmlns="http://www.w3.org/2000/svg">
<g opacity="0.9">
<path d="M49.7456 17.6312C49.7456 17.6312 49.7496 17.6411 49.7516 17.6529C49.7675 17.7081 49.7715 17.7554 49.7735 17.7889C48.1692 17.7889 46.5649 17.7889 44.9626 17.7889C44.8771 17.6095 44.7916 17.4144 44.7101 17.2035C44.5988 16.9138 44.5093 16.6399 44.4398 16.3857C43.4239 18.524 36.7563 19.0915 36.7563 14.9313C36.7563 14.2494 36.9809 13.5537 37.3149 13.1123C38.7323 11.2322 43.1217 12.5683 43.9825 11.2085C44.2787 10.7414 44.2191 10.2862 44.2191 10.2862C44.2032 10.168 44.1257 9.70089 43.742 9.4979C43.6267 9.43681 43.4875 9.39937 43.3245 9.39937C43.1317 9.40725 42.9945 9.46243 42.907 9.5117C42.5114 9.73243 42.3106 10.2645 42.3802 10.8617C40.6785 10.8617 38.9788 10.8636 37.2771 10.8636C37.5097 7.46803 41.7004 6.59499 44.8374 7.02461C51.664 7.99225 48.6026 14.2927 49.7456 17.6312ZM44.3543 12.8265C44.07 13.0413 43.8155 13.1615 43.6346 13.2325C43.2907 13.3685 42.9985 13.4079 42.7202 13.6877C42.6685 13.7409 42.6188 13.7902 42.5711 13.869C42.3584 14.2277 42.418 14.8209 42.8017 15.1678C43.072 15.4141 43.4915 15.5225 43.8652 15.3845C44.1277 15.288 44.2787 15.1027 44.3423 15.014C44.3483 14.2868 44.3523 13.5577 44.3543 12.8265Z" fill="#29223A"/>
<path d="M51.6641 7.31432C53.4512 7.31432 63.3891 7.33994 62.7072 7.33994C61.1108 9.88812 59.3972 12.8975 58.4808 14.5529C59.6835 14.5549 60.8862 14.5588 62.0889 14.5608V17.8046C49.5588 17.8046 50.4077 17.7869 50.346 17.7869C51.8648 15.3964 53.3817 13.0078 54.9005 10.6173C53.8071 10.6193 52.7157 10.6232 51.6223 10.6252C51.6362 9.52353 51.6501 8.41794 51.6641 7.31432Z" fill="#29223A"/>
<path d="M25.0055 7.31432C26.7926 7.31432 36.7305 7.33994 36.0486 7.33994C34.4522 9.88812 32.7386 12.8975 31.8222 14.5529C33.0249 14.5549 34.2276 14.5588 35.4303 14.5608V17.8046C22.9002 17.8046 23.7491 17.7869 23.6874 17.7869C25.2062 15.3964 26.723 13.0078 28.2418 10.6173C27.1485 10.6193 26.0571 10.6232 24.9637 10.6252C24.9776 9.52353 24.9915 8.41794 25.0055 7.31432Z" fill="#29223A"/>
<path d="M64.059 7.31432C65.8462 7.31432 75.784 7.33994 75.1021 7.33994C73.5058 9.88812 71.7922 12.8975 70.8757 14.5529C72.0784 14.5549 73.2812 14.5588 74.4839 14.5608V17.8046C61.9537 17.8046 62.8026 17.7869 62.741 17.7869C64.2598 15.3964 65.7766 13.0078 67.2954 10.6173C66.202 10.6193 65.1106 10.6232 64.0172 10.6252C64.0312 9.52353 64.0451 8.41794 64.059 7.31432Z" fill="#29223A"/>
<path d="M76.281 22.7199C76.281 21.634 76.281 20.5501 76.281 19.4642C76.6487 19.4544 77.0145 19.4445 77.3823 19.4347C78.0701 19.4011 78.6705 19.0484 78.9349 18.532C79.0502 18.3054 79.1774 17.9034 79.0979 17.4718C79.078 17.3654 79.0522 17.2865 79.0422 17.257C78.8951 16.8135 77.5453 12.809 75.6945 7.32044C77.2928 7.31058 78.8892 7.29876 80.4875 7.2889C80.903 9.05075 81.3185 10.8126 81.732 12.5764C82.1793 10.8323 82.6285 9.08623 83.0758 7.34211C84.7179 7.34408 86.358 7.34605 88 7.35C87.2605 9.78782 86.6144 11.9064 85.4335 15.7789C84.4654 18.9538 83.8949 20.9383 82.0302 22.0163C81.0123 22.6056 79.9627 22.7219 79.2271 22.7278C78.2471 22.7258 77.263 22.7219 76.281 22.7199Z" fill="#29223A"/>
<path opacity="0.9028" d="M20.9957 19.937L20.4093 19.9489C20.3894 19.941 20.3715 19.941 20.3556 19.9508L20.2522 19.9528C20.1965 19.9095 20.1329 19.9548 20.0753 19.9528C19.9381 19.9508 19.799 19.943 19.6598 19.939L19.2463 19.9233L18.4173 19.8799L18.1907 19.8523C18.1489 19.8326 18.1112 19.8365 18.0794 19.87C17.8348 19.8661 17.5923 19.8641 17.3498 19.8562C17.1073 19.8503 16.8627 19.8464 16.6202 19.8365C16.5804 19.8149 16.5506 19.8326 16.5268 19.874V19.872L16.1351 19.8641C16.0954 19.8208 16.0616 19.8503 16.0278 19.87L15.5964 19.8306L23.5105 11.3702L21.5782 8.46727L21.4271 8.08495C21.3297 7.73021 21.2323 7.3735 21.0235 7.06409L20.8367 7.08971L20.7293 7.10154L20.6796 7.11927L20.5862 6.97738L18.7433 7.6297C18.6956 7.64153 18.6479 7.65532 18.5982 7.66714L17.2941 7.99429L16.9363 8.06918C16.8687 8.06721 16.809 8.08889 16.7653 8.13816L14.4752 8.77668C14.4076 8.77471 14.3639 8.80624 14.336 8.85748L14.334 8.85551L13.7198 9.03091C13.6482 9.00726 13.6025 9.05062 13.5528 9.08806L12.6264 9.31272L12.2745 9.40338L12.2069 9.44871C12.1354 9.48418 12.0558 9.49994 11.9763 9.51571L15.5407 5.40472L15.2286 4.8805C15.2684 4.84503 15.2982 4.7997 15.324 4.75043C15.3717 4.66372 15.4135 4.57307 15.5089 4.53168C15.5109 4.26366 15.2863 4.21833 15.1014 4.13162L15.1153 4.07447C15.1909 4.07249 15.2406 4.03899 15.2604 3.96016L14.9463 3.6271L14.6899 1.99335L14.5786 1.52628C14.5189 1.16367 14.4613 0.801043 14.3261 0.456161L14.2008 0.440398L14.1293 0.428574L13.9563 0.456161C13.8848 0.414775 13.837 0.442367 13.8132 0.531051C13.7317 0.381273 13.6462 0.471932 13.5647 0.479815C13.2725 0.505435 12.9802 0.534991 12.688 0.566523C12.5429 0.582289 12.3978 0.600027 12.2507 0.617764C12.1055 0.635501 11.9584 0.653236 11.8133 0.670972L11.5728 0.688714C11.527 0.67689 11.4873 0.688711 11.4575 0.728126C10.9466 0.81878 10.4356 0.911404 9.92671 1.00994C9.88099 1.00009 9.85317 1.02374 9.83528 1.0671V1.06512L9.42577 1.14987C9.37806 1.11834 9.34624 1.15381 9.31443 1.1814C9.10768 1.21293 8.90292 1.24644 8.69618 1.27994L8.46159 1.3233L8.41786 1.35877C8.30057 1.41789 8.14948 1.36862 8.0481 1.48095C7.93677 1.46322 7.83936 1.49869 7.74791 1.55584L7.54912 1.56767C7.42586 1.59723 7.30062 1.62876 7.17737 1.66029L6.77182 1.81992L6.16749 1.93226C6.11581 1.90073 6.08797 1.96379 6.04225 1.95985C5.96671 1.99138 5.89116 2.02882 5.81363 2.0505C5.56513 2.12342 5.31266 2.19437 5.06416 2.26926C4.81567 2.34611 4.57911 2.43283 4.35248 2.53925L4.35049 2.54122C4.23121 2.65947 4.08609 2.69691 3.92904 2.68312C3.91314 2.67326 3.9032 2.67917 3.89922 2.69888L3.77 2.77574C3.72825 2.79939 3.68451 2.82304 3.63879 2.84077C3.54933 2.87625 3.4559 2.89399 3.35054 2.86837C3.32669 2.8664 3.30283 2.86639 3.28097 2.87231C3.18753 2.87231 3.12987 2.95902 3.06824 3.03391C3.00661 3.1088 2.93704 3.17383 2.82771 3.1285C2.81379 3.12259 2.8317 3.1758 2.84164 3.22507C2.78398 3.11077 2.7144 3.09697 2.64085 3.16003C2.63687 3.17383 2.63089 3.18566 2.62493 3.19551C2.58119 3.13836 2.52951 3.11077 2.47782 3.08712C2.40228 3.07726 2.32873 3.07135 2.25915 3.08514C2.19355 3.09697 2.13192 3.13047 2.07824 3.19945C2.04842 3.18566 2.02656 3.20142 2.00668 3.22901C1.98878 3.26646 1.98083 3.30981 1.98083 3.35711C1.98481 3.44973 2.0027 3.54039 2.01066 3.63302C2.01264 3.66258 2.01663 3.69411 2.02061 3.72367C2.03452 3.82221 2.05836 3.9168 2.07426 4.01534L1.99675 4.03702C1.95103 3.78871 1.92518 3.53645 1.91723 3.28025C1.73036 3.34135 1.83573 3.58769 1.82181 3.75914C1.79795 3.87148 1.79994 3.97987 1.81982 4.08629L2.06433 5.23721C2.05241 5.31013 2.04842 5.38305 2.10607 5.45399C2.10806 5.45596 2.11006 5.45794 2.11204 5.46188L2.6309 7.89772L4.72025 7.60408L6.10386 7.40898C6.09392 7.42868 6.08597 7.45036 6.08001 7.47401C5.94682 7.5489 5.85736 7.66321 5.7858 7.79327L5.5711 7.96867L5.20729 8.36282C5.08603 8.52443 4.96278 8.68799 4.8435 8.85157L4.22923 9.45659C4.15369 9.46841 4.15567 9.55316 4.10399 9.58469C4.0364 9.67731 3.97477 9.77388 3.90121 9.86059C3.66464 10.1385 3.41814 10.4085 3.18555 10.6883C3.06826 10.8282 2.95296 10.9701 2.84164 11.114C2.78597 11.1869 2.73228 11.2598 2.67861 11.3327C2.62692 11.4057 2.57523 11.4806 2.52553 11.5574C2.52553 11.5574 2.52553 11.5574 2.52553 11.5554L2.52354 11.5574C2.45396 11.7801 2.30686 11.9457 2.11204 12.0737C2.08819 12.0797 2.07825 12.0935 2.08421 12.1171C1.93909 12.3753 1.81782 12.6492 1.53354 12.799C1.50372 12.8187 1.47588 12.8423 1.45402 12.8699C1.3407 12.9606 1.32681 13.1045 1.29897 13.2424C1.27313 13.3804 1.23337 13.5144 1.07035 13.5833C1.05047 13.5912 1.10614 13.6267 1.15187 13.6661C1.00476 13.6109 0.913297 13.6661 0.863598 13.812C0.867573 13.8297 0.867577 13.8474 0.867577 13.8632C0.776131 13.8514 0.694619 13.879 0.613112 13.9125C0.414316 14.0563 0.23342 14.212 0.199625 14.4702C0.153902 14.4919 0.136015 14.5333 0.130051 14.5825C0.136015 14.6397 0.157872 14.6889 0.193655 14.7362C0.26721 14.819 0.35666 14.886 0.434191 14.9668C0.460034 14.9924 0.485885 15.0181 0.515704 15.0397C0.62703 15.1343 0.754258 15.2092 0.861608 15.3097C0.949078 15.3846 1.04053 15.4536 1.13993 15.5088C1.15384 15.6034 1.22739 15.6625 1.30293 15.7216L1.31885 15.7453C0.841738 15.4792 0.410355 15.1521 0.0564973 14.7343C-0.128383 15.0161 0.189693 15.1245 0.306983 15.3018C0.422284 15.562 0.646904 15.6881 0.907327 15.7709C1.0445 15.8162 1.1459 15.9128 1.25126 16.0015C1.37452 16.1335 1.52957 16.2242 1.6906 16.305C1.74427 16.3779 1.78005 16.4705 1.85559 16.5178L3.44198 18.8058L10.5788 16.2754L10.3621 16.4843C10.2269 16.6144 10.0937 16.7444 9.96052 16.8765C9.69413 17.1406 9.44165 17.4145 9.20707 17.7062L9.20508 17.7081C9.15936 17.8185 9.09377 17.9111 9.01624 17.9919C8.93672 18.0727 8.84328 18.1417 8.73991 18.1988C8.71406 18.2028 8.70412 18.2166 8.70809 18.2402C8.53713 18.4905 8.38606 18.7585 8.08588 18.8906C8.05408 18.9083 8.02424 18.93 7.9984 18.9576C7.75388 19.1271 7.88309 19.537 7.54315 19.6533C7.52327 19.6611 7.57495 19.6986 7.6167 19.7439C7.47357 19.6789 7.37618 19.7282 7.31455 19.872C7.31654 19.8917 7.31654 19.9095 7.31455 19.9252C7.22311 19.9075 7.13761 19.9292 7.05412 19.9568C6.94677 20.0238 6.84141 20.0947 6.75791 20.1814C6.67641 20.2662 6.61279 20.3667 6.58496 20.4948C6.53725 20.5125 6.51538 20.5539 6.50544 20.6051C6.50544 20.6623 6.52333 20.7155 6.55514 20.7648C6.62074 20.8535 6.70622 20.9283 6.7758 21.0131C6.79965 21.0407 6.82351 21.0683 6.85134 21.0939C6.95472 21.1983 7.07598 21.2831 7.17339 21.3895C7.18731 21.4033 7.19925 21.4151 7.21316 21.4289L7.33642 21.6812C6.98455 21.4191 6.67244 21.1156 6.41599 20.7529C6.20328 21.0249 6.5134 21.1569 6.61479 21.3442C6.70623 21.6142 6.92092 21.758 7.17737 21.8585C7.31056 21.9137 7.404 22.0182 7.5034 22.1147C7.53521 22.1561 7.57099 22.1916 7.60678 22.2271L8.33438 23.7071C8.33438 23.9515 8.34034 24.1958 8.35624 24.4402C8.36221 24.5309 8.34231 24.6452 8.41388 24.6807C8.41785 24.6984 8.41985 24.7181 8.42383 24.7358C8.49937 24.8521 8.57689 24.925 8.66436 24.7595C8.66635 24.7615 8.67033 24.7614 8.67232 24.7634C8.67829 24.7634 8.68424 24.7634 8.69021 24.7634C8.68822 24.793 8.69617 24.8186 8.71207 24.8383C8.78165 24.8777 8.85323 24.8994 8.9248 24.9073L9.25083 25.5714L15.1054 24.6925C15.1252 24.6905 15.1431 24.6885 15.163 24.6866C15.3857 24.6629 15.6202 24.7477 15.827 24.5841L15.835 24.5821C15.8628 24.6353 15.9025 24.6649 15.9443 24.6629C16.0874 24.659 16.2306 24.657 16.3717 24.655C16.5148 24.6531 16.658 24.6491 16.7991 24.6471C16.9422 24.6432 17.0854 24.6393 17.2265 24.6334C17.3697 24.6274 17.5108 24.6176 17.6539 24.6038C17.7096 24.5998 17.7832 24.5979 17.8189 24.5092L17.8786 24.4599C17.8905 24.4599 17.9044 24.458 17.9163 24.458C17.9382 24.456 17.9601 24.4501 17.98 24.4382C18.0058 24.5407 18.0336 24.6274 18.1151 24.4796C18.1171 24.525 18.143 24.5506 18.1768 24.5723C18.4253 24.6176 18.6718 24.6176 18.9183 24.6097C19.1648 24.5998 19.4113 24.5841 19.6598 24.5959C19.8069 24.6018 19.9719 24.6531 20.0991 24.5092L20.1727 24.5407C20.3258 24.525 20.4788 24.5072 20.6319 24.4934C20.781 24.6235 20.9003 24.4067 21.0434 24.4737C21.1667 24.2806 21.0593 24.0953 20.9937 23.9081L21.0275 23.8746C21.0713 23.9239 21.115 23.9337 21.1607 23.8904L21.1547 23.7859L21.3237 23.7603L20.9957 19.937ZM14.6104 2.70282C14.6104 2.70677 14.6104 2.70873 14.6084 2.71268L14.6064 2.70874C14.6084 2.70676 14.6104 2.70479 14.6104 2.70282ZM12.0876 1.01389C12.0161 1.04739 11.9564 1.07695 11.9187 1.09666C11.9425 0.992206 12.0161 1.00403 12.0876 1.01389ZM10.4515 1.41592C10.4496 1.41395 10.4496 1.41592 10.4515 1.41592C10.4496 1.41395 10.4496 1.41395 10.4515 1.41592Z" fill="#6F38F4"/>
</g>
</svg>
